ffmpeg started on 2016-12-01 at 09:06:49
Report written to "Output/x264/results/ffmpeg/old_town_cross_2160p50medium12000k.log"
Command line:
Tools/ffmpeg/ffmpeg -benchmark -y -i Input/y4m/old_town_cross_2160p50.y4m -c:v libx264 -preset medium -b:v 12000k -an Output/x264/encoded/old_town_cross_2160p50medium12000k.mkv
ffmpeg version N-82227-gdb23fde Copyright (c) 2000-2016 the FFmpeg developers
  built with gcc 5.4.0 (Ubuntu 5.4.0-6ubuntu1~16.04.2) 20160609
  configuration: --prefix=/home/jaroslav/ffmpeg_build --pkg-config-flags=--static --extra-cflags=-I/home/jaroslav/ffmpeg_build/include --extra-ldflags=-L/home/jaroslav/ffmpeg_build/lib --bindir=/home/jaroslav/bin --enable-gpl --enable-libass --enable-libfdk-aac --enable-libfreetype --enable-libmp3lame --enable-libopus --enable-libtheora --enable-libvorbis --enable-libvpx --enable-libx264 --enable-libx265 --enable-nvenc --enable-libmfx --enable-libxvid --enable-libgsm --enable-libopencore-amrnb --enable-version3 --enable-nonfree
  libavutil      55. 35.100 / 55. 35.100
  libavcodec     57. 66.101 / 57. 66.101
  libavformat    57. 57.100 / 57. 57.100
  libavdevice    57.  2.100 / 57.  2.100
  libavfilter     6. 66.100 /  6. 66.100
  libswscale      4.  3.100 /  4.  3.100
  libswresample   2.  4.100 /  2.  4.100
  libpostproc    54.  2.100 / 54.  2.100
Input #0, yuv4mpegpipe, from 'Input/y4m/old_town_cross_2160p50.y4m':
  Duration: 00:00:10.00, start: 0.000000, bitrate: 4976642 kb/s
    Stream #0:0: Video: rawvideo (I420 / 0x30323449), yuv420p(progressive), 3840x2160, SAR 1:1 DAR 16:9, 50 fps, 50 tbr, 50 tbn, 50 tbc
[libx264 @ 0x3a53120] using SAR=1/1
[libx264 @ 0x3a53120] using cpu capabilities: MMX2 SSE2Fast SSSE3 SSE4.2 AVX FMA3 AVX2 LZCNT BMI2
[libx264 @ 0x3a53120] profile High, level 5.2
[libx264 @ 0x3a53120] 264 - core 148 - H.264/MPEG-4 AVC codec - Copyleft 2003-2016 - http://www.videolan.org/x264.html - options: cabac=1 ref=3 deblock=1:0:0 analyse=0x3:0x113 me=hex subme=7 psy=1 psy_rd=1.00:0.00 mixed_ref=1 me_range=16 chroma_me=1 trellis=1 8x8dct=1 cqm=0 deadzone=21,11 fast_pskip=1 chroma_qp_offset=-2 threads=6 lookahead_threads=1 sliced_threads=0 nr=0 decimate=1 interlaced=0 bluray_compat=0 constrained_intra=0 bframes=3 b_pyramid=2 b_adapt=1 b_bias=0 direct=1 weightb=1 open_gop=0 weightp=2 keyint=250 keyint_min=25 scenecut=40 intra_refresh=0 rc_lookahead=40 rc=abr mbtree=1 bitrate=12000 ratetol=1.0 qcomp=0.60 qpmin=0 qpmax=69 qpstep=4 ip_ratio=1.40 aq=1:1.00
Output #0, matroska, to 'Output/x264/encoded/old_town_cross_2160p50medium12000k.mkv':
  Metadata:
    encoder         : Lavf57.57.100
    Stream #0:0: Video: h264 (libx264) (H264 / 0x34363248), yuv420p, 3840x2160 [SAR 1:1 DAR 16:9], q=-1--1, 12000 kb/s, 50 fps, 1k tbn, 50 tbc
    Metadata:
      encoder         : Lavc57.66.101 libx264
    Side data:
      cpb: bitrate max/min/avg: 0/0/12000000 buffer size: 0 vbv_delay: -1
Stream mapping:
  Stream #0:0 -> #0:0 (rawvideo (native) -> h264 (libx264))
Press [q] to stop, [?] for help
frame=   47 fps= 18 q=0.0 size=       0kB time=00:00:00.00 bitrate=N/A speed=   0x    frame=   53 fps= 16 q=32.0 size=       1kB time=00:00:00.00 bitrate=5872.0kbits/s speed=0.000303x    frame=   58 fps= 15 q=39.0 size=       1kB time=00:00:00.10 bitrate=  58.1kbits/s speed=0.0266x    frame=   66 fps= 15 q=45.0 size=       1kB time=00:00:00.26 bitrate=  22.5kbits/s speed=0.0602x    frame=   75 fps= 15 q=40.0 size=       1kB time=00:00:00.44 bitrate=  13.3kbits/s speed=0.0898x    frame=   82 fps= 15 q=39.0 size=       1kB time=00:00:00.58 bitrate=  10.1kbits/s speed=0.107x    frame=   88 fps= 15 q=38.0 size=       1kB time=00:00:00.70 bitrate=   8.4kbits/s speed=0.118x    frame=   94 fps= 14 q=37.0 size=       1kB time=00:00:00.82 bitrate=   7.2kbits/s speed=0.126x    frame=  101 fps= 14 q=36.0 size=       1kB time=00:00:00.96 bitrate=   6.1kbits/s speed=0.137x    frame=  106 fps= 14 q=36.0 size=       1kB time=00:00:01.06 bitrate=   5.5kbits/s speed=0.139x    frame=  113 fps= 14 q=35.0 size=       1kB time=00:00:01.20 bitrate=   4.9kbits/s speed=0.147x    frame=  120 fps= 14 q=35.0 size=       1kB time=00:00:01.34 bitrate=   4.4kbits/s speed=0.154x    frame=  126 fps= 13 q=35.0 size=       1kB time=00:00:01.46 bitrate=   4.0kbits/s speed=0.156x    frame=  131 fps= 13 q=34.0 size=       1kB time=00:00:01.56 bitrate=   3.8kbits/s speed=0.158x    frame=  137 fps= 13 q=34.0 size=       1kB time=00:00:01.68 bitrate=   3.5kbits/s speed=0.161x    frame=  144 fps= 13 q=34.0 size=       1kB time=00:00:01.82 bitrate=   3.2kbits/s speed=0.164x    frame=  149 fps= 13 q=34.0 size=       1kB time=00:00:01.92 bitrate=   3.1kbits/s speed=0.166x    frame=  154 fps= 13 q=34.0 size=       1kB time=00:00:02.02 bitrate=   2.9kbits/s speed=0.167x    frame=  160 fps= 13 q=34.0 size=       1kB time=00:00:02.14 bitrate=   2.7kbits/s speed=0.169x    frame=  166 fps= 13 q=34.0 size=       1kB time=00:00:02.26 bitrate=   2.6kbits/s speed=0.171x    frame=  170 fps= 12 q=34.0 size=       1kB time=00:00:02.34 bitrate=   2.5kbits/s speed=0.171x    frame=  176 fps= 12 q=33.0 size=       1kB time=00:00:02.46 bitrate=   2.4kbits/s speed=0.173x    frame=  182 fps= 12 q=33.0 size=       1kB time=00:00:02.58 bitrate=   2.3kbits/s speed=0.173x    frame=  189 fps= 12 q=33.0 size=       1kB time=00:00:02.72 bitrate=   2.2kbits/s speed=0.176x    frame=  194 fps= 12 q=33.0 size=       1kB time=00:00:02.82 bitrate=   2.1kbits/s speed=0.175x    frame=  201 fps= 12 q=33.0 size=       1kB time=00:00:02.96 bitrate=   2.0kbits/s speed=0.178x    frame=  206 fps= 12 q=33.0 size=       1kB time=00:00:03.06 bitrate=   1.9kbits/s speed=0.178x    frame=  211 fps= 12 q=33.0 size=       1kB time=00:00:03.16 bitrate=   1.9kbits/s speed=0.178x    frame=  217 fps= 12 q=33.0 size=       1kB time=00:00:03.28 bitrate=   1.8kbits/s speed=0.179x    frame=  223 fps= 12 q=33.0 size=       1kB time=00:00:03.40 bitrate=   1.7kbits/s speed=0.181x    frame=  229 fps= 12 q=33.0 size=       1kB time=00:00:03.52 bitrate=   1.7kbits/s speed=0.182x    frame=  233 fps= 12 q=33.0 size=       1kB time=00:00:03.60 bitrate=   1.6kbits/s speed=0.181x    frame=  240 fps= 12 q=33.0 size=    5123kB time=00:00:03.74 bitrate=11217.4kbits/s speed=0.183x    frame=  245 fps= 12 q=33.0 size=    5123kB time=00:00:03.84 bitrate=10925.3kbits/s speed=0.182x    frame=  252 fps= 12 q=33.0 size=    5123kB time=00:00:03.98 bitrate=10541.1kbits/s speed=0.183x    frame=  259 fps= 12 q=33.0 size=    5123kB time=00:00:04.12 bitrate=10183.0kbits/s speed=0.184x    frame=  262 fps= 11 q=33.0 size=    5123kB time=00:00:04.18 bitrate=10036.9kbits/s speed=0.178x    frame=  263 fps= 11 q=33.0 size=    5123kB time=00:00:04.20 bitrate=9989.1kbits/s speed=0.174x    frame=  265 fps= 11 q=33.0 size=    5123kB time=00:00:04.24 bitrate=9894.9kbits/s speed=0.171x    frame=  270 fps= 11 q=33.0 size=    5123kB time=00:00:04.34 bitrate=9667.0kbits/s speed=0.17x    frame=  275 fps= 11 q=34.0 size=    5123kB time=00:00:04.44 bitrate=9449.3kbits/s speed=0.17x    frame=  279 fps= 10 q=34.0 size=    5123kB time=00:00:04.52 bitrate=9282.1kbits/s speed=0.17x    frame=  283 fps= 10 q=34.0 size=    5123kB time=00:00:04.60 bitrate=9120.7kbits/s speed=0.17x    frame=  288 fps= 10 q=34.0 size=    5123kB time=00:00:04.70 bitrate=8926.7kbits/s speed=0.169x    frame=  293 fps= 10 q=34.0 size=    5123kB time=00:00:04.80 bitrate=8740.7kbits/s speed=0.169x    frame=  300 fps= 10 q=34.0 size=    7182kB time=00:00:04.94 bitrate=11906.8kbits/s speed=0.171x    frame=  304 fps= 10 q=35.0 size=    7182kB time=00:00:05.02 bitrate=11717.1kbits/s speed=0.17x    frame=  309 fps= 10 q=35.0 size=    7182kB time=00:00:05.12 bitrate=11488.3kbits/s speed=0.17x    frame=  315 fps= 10 q=35.0 size=    7182kB time=00:00:05.24 bitrate=11225.2kbits/s speed=0.171x    frame=  322 fps= 10 q=34.0 size=    7182kB time=00:00:05.38 bitrate=10933.2kbits/s speed=0.173x    frame=  327 fps= 10 q=34.0 size=    7182kB time=00:00:05.48 bitrate=10733.7kbits/s speed=0.172x    frame=  334 fps= 10 q=34.0 size=    7182kB time=00:00:05.62 bitrate=10466.4kbits/s speed=0.174x    frame=  339 fps= 10 q=34.0 size=    7182kB time=00:00:05.72 bitrate=10283.4kbits/s speed=0.174x    frame=  343 fps= 10 q=34.0 size=    7182kB time=00:00:05.80 bitrate=10141.6kbits/s speed=0.174x    frame=  349 fps= 10 q=34.0 size=    7182kB time=00:00:05.92 bitrate=9936.1kbits/s speed=0.174x    frame=  356 fps= 10 q=34.0 size=    7182kB time=00:00:06.06 bitrate=9706.6kbits/s speed=0.175x    frame=  362 fps= 10 q=34.0 size=    7182kB time=00:00:06.18 bitrate=9518.1kbits/s speed=0.175x    frame=  370 fps= 10 q=34.0 size=    7182kB time=00:00:06.34 bitrate=9278.0kbits/s speed=0.176x    frame=  377 fps= 10 q=34.0 size=    7182kB time=00:00:06.48 bitrate=9077.5kbits/s speed=0.178x    frame=  383 fps= 10 q=34.0 size=    7182kB time=00:00:06.60 bitrate=8912.5kbits/s speed=0.178x    frame=  388 fps= 10 q=34.0 size=    7182kB time=00:00:06.70 bitrate=8779.5kbits/s speed=0.178x    frame=  394 fps= 10 q=34.0 size=    7182kB time=00:00:06.82 bitrate=8625.1kbits/s speed=0.178x    frame=  402 fps= 10 q=34.0 size=    7182kB time=00:00:06.98 bitrate=8427.4kbits/s speed=0.179x    frame=  408 fps= 10 q=34.0 size=    7182kB time=00:00:07.10 bitrate=8285.0kbits/s speed=0.179x    frame=  414 fps= 10 q=33.0 size=    7182kB time=00:00:07.22 bitrate=8147.3kbits/s speed=0.18x    frame=  419 fps= 10 q=33.0 size=    7182kB time=00:00:07.32 bitrate=8036.0kbits/s speed=0.18x    frame=  426 fps= 10 q=33.0 size=    7182kB time=00:00:07.46 bitrate=7885.2kbits/s speed=0.181x    frame=  430 fps= 10 q=33.0 size=    7182kB time=00:00:07.54 bitrate=7801.5kbits/s speed=0.18x    frame=  437 fps= 10 q=33.0 size=    7182kB time=00:00:07.68 bitrate=7659.4kbits/s speed=0.181x    frame=  443 fps= 10 q=33.0 size=    7182kB time=00:00:07.80 bitrate=7541.5kbits/s speed=0.181x    frame=  448 fps= 10 q=33.0 size=    7182kB time=00:00:07.90 bitrate=7446.1kbits/s speed=0.181x    frame=  455 fps= 10 q=33.0 size=    7182kB time=00:00:08.04 bitrate=7316.4kbits/s speed=0.182x    frame=  462 fps= 10 q=33.0 size=    7182kB time=00:00:08.18 bitrate=7191.2kbits/s speed=0.182x    frame=  469 fps= 10 q=33.0 size=    7182kB time=00:00:08.32 bitrate=7070.2kbits/s speed=0.182x    frame=  476 fps= 10 q=33.0 size=    7182kB time=00:00:08.46 bitrate=6953.3kbits/s speed=0.183x    frame=  483 fps= 10 q=33.0 size=   12317kB time=00:00:08.60 bitrate=11731.0kbits/s speed=0.183x    frame=  488 fps= 10 q=33.0 size=   12317kB time=00:00:08.70 bitrate=11596.2kbits/s speed=0.183x    frame=  495 fps= 10 q=33.0 size=   12317kB time=00:00:08.84 bitrate=11412.6kbits/s speed=0.184x    frame=  499 fps= 10 q=33.0 size=   12317kB time=00:00:08.92 bitrate=11310.2kbits/s speed=0.183x    frame=  500 fps=9.2 q=-1.0 Lsize=   14808kB time=00:00:09.94 bitrate=12203.0kbits/s speed=0.183x    
video:14804kB audio:0kB subtitle:0kB other streams:0kB global headers:0kB muxing overhead: 0.031348%
bench: utime=194.788s
bench: maxrss=1926860kB
[libx264 @ 0x3a53120] frame I:3     Avg QP:28.94  size:501763
[libx264 @ 0x3a53120] frame P:183   Avg QP:32.00  size: 44480
[libx264 @ 0x3a53120] frame B:314   Avg QP:33.84  size: 17558
[libx264 @ 0x3a53120] consecutive B-frames: 16.0%  0.8%  0.0% 83.2%
[libx264 @ 0x3a53120] mb I  I16..4:  4.3% 81.6% 14.1%
[libx264 @ 0x3a53120] mb P  I16..4:  0.1%  0.6%  0.0%  P16..4: 39.3%  2.5%  3.0%  0.0%  0.0%    skip:54.5%
[libx264 @ 0x3a53120] mb B  I16..4:  0.0%  0.0%  0.0%  B16..8: 44.4%  0.1%  0.0%  direct: 0.0%  skip:55.4%  L0:49.0% L1:51.0% BI: 0.0%
[libx264 @ 0x3a53120] final ratefactor: 25.88
[libx264 @ 0x3a53120] 8x8 transform intra:82.9% inter:91.0%
[libx264 @ 0x3a53120] coded y,uvDC,uvAC intra: 76.1% 77.1% 58.0% inter: 7.0% 6.7% 0.1%
[libx264 @ 0x3a53120] i16 v,h,dc,p: 27% 31% 20% 22%
[libx264 @ 0x3a53120] i8 v,h,dc,ddl,ddr,vr,hd,vl,hu: 12% 16% 35%  6%  6%  6%  8%  5%  7%
[libx264 @ 0x3a53120] i4 v,h,dc,ddl,ddr,vr,hd,vl,hu: 18% 24% 16%  7%  7%  7%  9%  5%  7%
[libx264 @ 0x3a53120] i8c dc,h,v,p: 64% 17% 15%  4%
[libx264 @ 0x3a53120] Weighted P-Frames: Y:0.5% UV:0.0%
[libx264 @ 0x3a53120] ref P L0: 53.3% 28.7% 14.0%  4.0%  0.0%
[libx264 @ 0x3a53120] ref B L0: 86.2% 11.2%  2.6%
[libx264 @ 0x3a53120] ref B L1: 94.1%  5.9%
[libx264 @ 0x3a53120] kb/s:12126.61
